<svg width="1000" height="200" viewBox="0 0 1000 200" fill="none" xmlns="http://www.w3.org/2000/svg">
<path d="M0 0H1000L851.442 174.453C837.816 190.453 815.412 200 791.487 200H208.513C184.588 200 162.184 190.453 148.558 174.453L0 0Z" fill="url(#paint0_linear)"/>
<path d="M264.92 93.968C266.968 93.968 268.568 94.544 269.72 95.696C270.936 96.848 271.544 98.448 271.544 100.496C271.544 101.008 271.512 101.552 271.448 102.128C271.384 102.64 271.256 103.088 271.064 103.472C270.232 103.344 269.304 103.248 268.28 103.184C267.256 103.056 266.04 102.992 264.632 102.992C261.752 102.992 258.872 103.248 255.992 103.76C253.112 104.272 250.36 104.688 247.736 105.008C244.856 111.792 242.488 118.16 240.632 124.112C238.776 130.064 237.336 135.952 236.312 141.776C234.136 141.264 232.216 140.336 230.552 138.992C228.888 137.648 227.32 135.76 225.848 133.328C226.296 132.304 226.84 131.088 227.48 129.68C228.12 128.208 228.888 126.384 229.784 124.208C230.68 121.968 231.736 119.28 232.952 116.144C234.232 112.944 235.736 109.136 237.464 104.72C234.776 103.824 233.016 102.256 232.184 100.016C232.504 99.696 233.4 99.344 234.872 98.96C236.344 98.512 238.136 98.032 240.248 97.52C241.208 95.024 242.04 92.816 242.744 90.896C243.448 88.912 244.088 87.056 244.664 85.328C245.24 83.536 245.752 81.808 246.2 80.144C246.712 78.416 247.16 76.592 247.544 74.672H247.064C244.632 74.672 242.648 74.096 241.112 72.944C239.64 71.792 238.904 70.288 238.904 68.432C238.904 67.92 238.968 67.312 239.096 66.608C239.288 65.904 239.512 65.296 239.768 64.784C240.984 64.976 242.168 65.104 243.32 65.168C244.536 65.232 246.104 65.264 248.024 65.264C252.056 65.264 255.832 65.168 259.352 64.976C262.872 64.72 266.04 64.464 268.856 64.208C271.736 63.952 274.2 63.728 276.248 63.536C278.296 63.28 279.864 63.152 280.952 63.152C282.424 63.152 283.736 63.92 284.888 65.456C286.04 66.992 286.936 69.168 287.576 71.984C285.528 71.792 283.864 71.664 282.584 71.6C281.368 71.536 280.28 71.504 279.32 71.504C276.056 71.504 273.048 71.664 270.296 71.984C267.608 72.24 265.048 72.56 262.616 72.944C262.232 73.52 261.784 74.256 261.272 75.152C260.824 76.048 260.216 77.328 259.448 78.992C258.68 80.592 257.688 82.704 256.472 85.328C255.32 87.952 253.848 91.28 252.056 95.312C254.552 94.928 256.92 94.608 259.16 94.352C261.464 94.096 263.384 93.968 264.92 93.968ZM281.891 141.296C278.819 140.4 276.675 139.504 275.459 138.608C274.307 137.712 273.731 136.592 273.731 135.248C273.731 134.224 274.019 132.784 274.595 130.928C275.171 129.072 276.003 126.896 277.091 124.4C278.243 121.84 279.587 119.024 281.123 115.952C282.723 112.88 284.515 109.584 286.499 106.064C284.835 106 283.331 105.968 281.987 105.968C280.707 105.904 279.651 105.872 278.819 105.872C279.203 104.912 280.291 104.08 282.083 103.376C283.875 102.672 286.243 102.064 289.187 101.552C291.683 97.392 294.339 93.424 297.155 89.648C300.035 85.872 302.915 82.416 305.795 79.28C308.675 76.08 311.555 73.296 314.435 70.928C317.315 68.496 320.067 66.576 322.691 65.168C322.755 64.72 322.787 64.336 322.787 64.016C322.851 63.696 322.883 63.472 322.883 63.344C323.779 63.344 324.963 63.568 326.435 64.016C327.971 64.464 329.443 65.008 330.851 65.648C332.323 66.288 333.603 66.96 334.691 67.664C335.843 68.304 336.483 68.848 336.611 69.296C334.499 73.008 332.419 78.576 330.371 86C328.323 93.36 326.627 102.192 325.283 112.496C324.963 115.056 324.675 117.968 324.419 121.232C324.227 124.496 324.131 128.144 324.131 132.176C324.131 133.584 324.131 135.024 324.131 136.496C324.131 137.968 324.195 139.504 324.323 141.104C324.195 141.168 324.067 141.2 323.939 141.2C323.811 141.2 323.555 141.2 323.171 141.2C322.275 141.2 321.219 141.04 320.003 140.72C318.851 140.464 317.699 140.112 316.547 139.664C315.459 139.28 314.499 138.832 313.667 138.32C312.899 137.808 312.419 137.36 312.227 136.976C312.163 136.144 312.131 135.312 312.131 134.48C312.131 133.712 312.131 132.88 312.131 131.984C312.131 128.016 312.259 123.984 312.515 119.888C312.835 115.792 313.347 111.568 314.051 107.216C313.155 107.152 311.971 107.088 310.499 107.024C309.027 106.896 307.363 106.8 305.507 106.736C303.715 106.672 301.763 106.608 299.651 106.544C297.603 106.416 295.587 106.32 293.603 106.256C292.067 109.136 290.627 112.016 289.283 114.896C287.939 117.712 286.787 120.56 285.827 123.44C284.739 126.512 283.843 129.584 283.139 132.656C282.499 135.728 282.083 138.608 281.891 141.296ZM318.947 83.6C319.203 82.704 319.491 81.488 319.811 79.952C320.195 78.352 320.547 76.688 320.867 74.96C319.267 75.536 317.475 76.592 315.491 78.128C313.571 79.664 311.555 81.584 309.443 83.888C307.395 86.128 305.283 88.688 303.107 91.568C300.995 94.384 298.947 97.392 296.963 100.592C302.339 100.144 308.451 99.856 315.299 99.728C315.811 97.04 316.355 94.384 316.931 91.76C317.571 89.072 318.243 86.352 318.947 83.6ZM347.709 141.296C344.061 140.208 341.597 139.152 340.317 138.128C339.037 137.168 338.397 135.824 338.397 134.096C338.397 132.176 338.845 129.488 339.741 126.032C340.637 122.512 341.789 118.608 343.197 114.32C344.669 110.032 346.333 105.552 348.189 100.88C350.045 96.208 351.933 91.728 353.853 87.44C355.773 83.152 357.629 79.248 359.421 75.728C361.277 72.144 362.909 69.36 364.317 67.376L363.645 63.344C364.541 63.344 365.789 63.568 367.389 64.016C368.989 64.464 370.589 65.008 372.189 65.648C373.853 66.288 375.293 66.96 376.509 67.664C377.789 68.304 378.493 68.848 378.621 69.296C378.301 70.832 378.045 73.168 377.853 76.304C377.661 79.376 377.565 82.672 377.565 86.192C377.565 93.168 377.821 100.016 378.333 106.736C378.909 113.392 380.189 120.176 382.173 127.088C383.197 121.968 384.285 116.88 385.437 111.824C386.653 106.704 387.901 101.84 389.181 97.232C390.461 92.56 391.741 88.24 393.021 84.272C394.301 80.304 395.517 76.848 396.669 73.904C397.885 70.896 399.005 68.56 400.029 66.896C401.053 65.168 401.981 64.24 402.813 64.112C403.517 64.24 404.285 64.528 405.117 64.976C405.949 65.36 406.749 65.84 407.517 66.416C408.285 66.992 408.989 67.632 409.629 68.336C410.269 69.04 410.781 69.744 411.165 70.448C409.117 71.28 407.069 73.232 405.021 76.304C403.037 79.376 401.117 83.12 399.261 87.536C397.469 91.888 395.773 96.624 394.173 101.744C392.637 106.864 391.261 111.92 390.045 116.912C388.893 121.84 387.965 126.416 387.261 130.64C386.621 134.864 386.269 138.256 386.205 140.816C386.205 140.944 386.237 141.04 386.301 141.104C386.109 141.168 385.885 141.2 385.629 141.2C385.437 141.2 385.245 141.2 385.053 141.2C382.109 141.2 379.485 140.816 377.181 140.048C374.941 139.344 373.469 138.32 372.765 136.976C371.421 131.6 370.301 126.416 369.405 121.424C368.509 116.432 367.741 111.44 367.101 106.448C366.525 101.456 366.045 96.432 365.661 91.376C365.341 86.256 365.085 80.912 364.893 75.344C363.677 77.264 362.397 79.792 361.053 82.928C359.709 86 358.397 89.392 357.117 93.104C355.837 96.816 354.589 100.72 353.373 104.816C352.221 108.912 351.197 112.912 350.301 116.816C349.405 120.72 348.701 124.432 348.189 127.952C347.677 131.408 347.421 134.416 347.421 136.976C347.421 138.32 347.421 139.28 347.421 139.856C347.485 140.432 347.581 140.912 347.709 141.296Z" fill="#C9FFCB"/>
<path d="M455.389 67.76C456.413 67.76 457.309 68.048 458.077 68.624C458.845 69.2 459.389 69.968 459.709 70.928L479.773 134H467.485L461.821 115.088H437.149L431.581 134H419.293L439.357 70.928C439.613 69.968 440.125 69.2 440.893 68.624C441.725 68.048 442.653 67.76 443.677 67.76H455.389ZM446.653 82.928L439.933 105.68H459.037L452.317 82.928C452.061 81.968 451.805 80.976 451.549 79.952C451.293 78.864 451.069 77.84 450.877 76.88H448.189C447.997 77.84 447.773 78.864 447.517 79.952C447.261 80.976 446.973 81.968 446.653 82.928ZM507.963 66.512C511.163 66.576 514.587 66.768 518.235 67.088C521.883 67.344 525.435 67.952 528.891 68.912L528.123 77.072C525.307 77.008 522.107 76.944 518.523 76.88C514.939 76.752 511.483 76.688 508.155 76.688C505.403 76.688 503.195 76.848 501.531 77.168C499.867 77.424 498.651 78.096 497.883 79.184C497.179 80.272 496.827 82.064 496.827 84.56C496.827 87.44 497.403 89.488 498.555 90.704C499.771 91.856 501.723 92.816 504.411 93.584L517.467 97.424C522.715 99.024 526.331 101.36 528.315 104.432C530.299 107.44 531.291 111.472 531.291 116.528C531.291 121.584 530.491 125.456 528.891 128.144C527.291 130.832 524.763 132.688 521.307 133.712C517.851 134.736 513.307 135.248 507.675 135.248C505.499 135.248 502.491 135.12 498.651 134.864C494.875 134.608 490.555 133.968 485.691 132.944L486.459 124.304C490.171 124.432 493.307 124.528 495.867 124.592C498.491 124.656 500.731 124.72 502.587 124.784C504.443 124.784 506.171 124.784 507.771 124.784C510.715 124.784 512.987 124.592 514.587 124.208C516.251 123.824 517.435 123.056 518.139 121.904C518.843 120.688 519.195 118.896 519.195 116.528C519.195 113.52 518.619 111.472 517.467 110.384C516.315 109.232 514.459 108.304 511.899 107.6L498.363 103.472C493.371 101.936 489.851 99.664 487.803 96.656C485.819 93.584 484.827 89.552 484.827 84.56C484.827 79.504 485.627 75.696 487.227 73.136C488.827 70.512 491.323 68.752 494.715 67.856C498.107 66.96 502.523 66.512 507.963 66.512ZM563.182 66.512C566.382 66.576 569.806 66.768 573.454 67.088C577.102 67.344 580.654 67.952 584.11 68.912L583.342 77.072C580.526 77.008 577.326 76.944 573.742 76.88C570.158 76.752 566.702 76.688 563.374 76.688C560.622 76.688 558.414 76.848 556.75 77.168C555.086 77.424 553.87 78.096 553.102 79.184C552.398 80.272 552.046 82.064 552.046 84.56C552.046 87.44 552.622 89.488 553.774 90.704C554.99 91.856 556.942 92.816 559.63 93.584L572.686 97.424C577.934 99.024 581.55 101.36 583.534 104.432C585.518 107.44 586.51 111.472 586.51 116.528C586.51 121.584 585.71 125.456 584.11 128.144C582.51 130.832 579.982 132.688 576.526 133.712C573.07 134.736 568.526 135.248 562.894 135.248C560.718 135.248 557.71 135.12 553.87 134.864C550.094 134.608 545.774 133.968 540.91 132.944L541.678 124.304C545.39 124.432 548.526 124.528 551.086 124.592C553.71 124.656 555.95 124.72 557.806 124.784C559.662 124.784 561.39 124.784 562.99 124.784C565.934 124.784 568.206 124.592 569.806 124.208C571.47 123.824 572.654 123.056 573.358 121.904C574.062 120.688 574.414 118.896 574.414 116.528C574.414 113.52 573.838 111.472 572.686 110.384C571.534 109.232 569.678 108.304 567.118 107.6L553.582 103.472C548.59 101.936 545.07 99.664 543.022 96.656C541.038 93.584 540.046 89.552 540.046 84.56C540.046 79.504 540.846 75.696 542.446 73.136C544.046 70.512 546.542 68.752 549.934 67.856C553.326 66.96 557.742 66.512 563.182 66.512ZM610.048 67.76V134H598.048V67.76H610.048ZM645.213 66.512C648.413 66.576 651.837 66.768 655.485 67.088C659.133 67.344 662.685 67.952 666.141 68.912L665.373 77.072C662.557 77.008 659.357 76.944 655.773 76.88C652.189 76.752 648.733 76.688 645.405 76.688C642.653 76.688 640.445 76.848 638.781 77.168C637.117 77.424 635.901 78.096 635.133 79.184C634.429 80.272 634.077 82.064 634.077 84.56C634.077 87.44 634.653 89.488 635.805 90.704C637.021 91.856 638.973 92.816 641.661 93.584L654.717 97.424C659.965 99.024 663.581 101.36 665.565 104.432C667.549 107.44 668.541 111.472 668.541 116.528C668.541 121.584 667.741 125.456 666.141 128.144C664.541 130.832 662.013 132.688 658.557 133.712C655.101 134.736 650.557 135.248 644.925 135.248C642.749 135.248 639.741 135.12 635.901 134.864C632.125 134.608 627.805 133.968 622.941 132.944L623.709 124.304C627.421 124.432 630.557 124.528 633.117 124.592C635.741 124.656 637.981 124.72 639.837 124.784C641.693 124.784 643.421 124.784 645.021 124.784C647.965 124.784 650.237 124.592 651.837 124.208C653.501 123.824 654.685 123.056 655.389 121.904C656.093 120.688 656.445 118.896 656.445 116.528C656.445 113.52 655.869 111.472 654.717 110.384C653.565 109.232 651.709 108.304 649.149 107.6L635.613 103.472C630.621 101.936 627.101 99.664 625.053 96.656C623.069 93.584 622.077 89.552 622.077 84.56C622.077 79.504 622.877 75.696 624.477 73.136C626.077 70.512 628.573 68.752 631.965 67.856C635.357 66.96 639.773 66.512 645.213 66.512ZM727.696 67.76V77.552H707.152V134L695.152 134V77.552L674.608 77.552V67.76L727.696 67.76ZM757.338 66.512C760.538 66.576 763.962 66.768 767.61 67.088C771.258 67.344 774.81 67.952 778.266 68.912L777.498 77.072C774.682 77.008 771.482 76.944 767.898 76.88C764.314 76.752 760.858 76.688 757.53 76.688C754.778 76.688 752.57 76.848 750.906 77.168C749.242 77.424 748.026 78.096 747.258 79.184C746.554 80.272 746.202 82.064 746.202 84.56C746.202 87.44 746.778 89.488 747.93 90.704C749.146 91.856 751.098 92.816 753.786 93.584L766.842 97.424C772.09 99.024 775.706 101.36 777.69 104.432C779.674 107.44 780.666 111.472 780.666 116.528C780.666 121.584 779.866 125.456 778.266 128.144C776.666 130.832 774.138 132.688 770.682 133.712C767.226 134.736 762.682 135.248 757.05 135.248C754.874 135.248 751.866 135.12 748.026 134.864C744.25 134.608 739.93 133.968 735.066 132.944L735.834 124.304C739.546 124.432 742.682 124.528 745.242 124.592C747.866 124.656 750.106 124.72 751.962 124.784C753.818 124.784 755.546 124.784 757.146 124.784C760.09 124.784 762.362 124.592 763.962 124.208C765.626 123.824 766.81 123.056 767.514 121.904C768.218 120.688 768.57 118.896 768.57 116.528C768.57 113.52 767.994 111.472 766.842 110.384C765.69 109.232 763.834 108.304 761.274 107.6L747.738 103.472C742.746 101.936 739.226 99.664 737.178 96.656C735.194 93.584 734.202 89.552 734.202 84.56C734.202 79.504 735.002 75.696 736.602 73.136C738.202 70.512 740.698 68.752 744.09 67.856C747.482 66.96 751.898 66.512 757.338 66.512Z" fill="white"/>
<defs>
<linearGradient id="paint0_linear" x1="500" y1="0" x2="500" y2="200" gradientUnits="userSpaceOnUse">
<stop stop-color="#1B4332"/>
<stop offset="1" stop-color="#40916C"/>
</linearGradient>
</defs>
</svg>
