<svg width="32" height="32" viewBox="0 0 32 32" fill="none" xmlns="http://www.w3.org/2000/svg">
<path d="M18.799 16.736L20.143 12.1856C20.207 11.9936 20.2646 11.7952 20.3158 11.5904C20.367 11.3728 20.4118 11.168 20.4502 10.976H20.9878C21.0262 11.168 21.071 11.3728 21.1222 11.5904C21.1734 11.7952 21.2246 11.9936 21.2758 12.1856L22.6198 16.736H18.799Z" fill="#40916C"/>
<path fill-rule="evenodd" clip-rule="evenodd" d="M16 32C24.8366 32 32 24.8366 32 16C32 7.16344 24.8366 0 16 0C7.16344 0 0 7.16344 0 16C0 24.8366 7.16344 32 16 32ZM14.944 14.7392C14.7136 14.5088 14.3936 14.3936 13.984 14.3936C13.6768 14.3936 13.2928 14.4192 12.832 14.4704C12.384 14.5216 11.9104 14.5856 11.4112 14.6624C11.7696 13.856 12.064 13.1904 12.2944 12.6656C12.5376 12.1408 12.736 11.7184 12.8896 11.3984C13.0432 11.0656 13.1648 10.8096 13.2544 10.6304C13.3568 10.4512 13.4464 10.304 13.5232 10.1888C14.0096 10.112 14.5216 10.048 15.0592 9.9968C15.6096 9.9328 16.2112 9.9008 16.864 9.9008C17.056 9.9008 17.2736 9.9072 17.5168 9.92C17.7728 9.9328 18.1056 9.9584 18.5152 9.9968C18.3872 9.4336 18.208 8.9984 17.9776 8.6912C17.7472 8.384 17.4848 8.2304 17.1904 8.2304C16.9728 8.2304 16.6592 8.256 16.2496 8.3072C15.84 8.3456 15.3472 8.3904 14.7712 8.4416C14.208 8.4928 13.5744 8.544 12.8704 8.5952C12.1664 8.6336 11.4112 8.6528 10.6048 8.6528C10.2208 8.6528 9.9072 8.6464 9.664 8.6336C9.4336 8.6208 9.1968 8.5952 8.9536 8.5568C8.9024 8.6592 8.8576 8.7808 8.8192 8.9216C8.7936 9.0624 8.7808 9.184 8.7808 9.2864C8.7808 9.6576 8.928 9.9584 9.2224 10.1888C9.5296 10.4192 9.9264 10.5344 10.4128 10.5344H10.5088C10.432 10.9184 10.3424 11.2832 10.24 11.6288C10.1504 11.9616 10.048 12.3072 9.9328 12.6656C9.8176 13.0112 9.6896 13.3824 9.5488 13.7792C9.408 14.1632 9.2416 14.6048 9.0496 15.104C8.6272 15.2064 8.2688 15.3024 7.9744 15.392C7.68 15.4688 7.5008 15.5392 7.4368 15.6032C7.6032 16.0512 7.9552 16.3648 8.4928 16.544C8.1472 17.4272 7.8464 18.1888 7.5904 18.8288C7.3472 19.456 7.136 19.9936 6.9568 20.4416C6.7776 20.8768 6.624 21.2416 6.496 21.536C6.368 21.8176 6.2592 22.0608 6.1696 22.2656C6.464 22.752 6.7776 23.1296 7.1104 23.3984C7.4432 23.6672 7.8272 23.8528 8.2624 23.9552C8.4672 22.7904 8.7552 21.6128 9.1264 20.4224C9.4976 19.232 9.9712 17.9584 10.5472 16.6016C11.072 16.5376 11.6224 16.4544 12.1984 16.352C12.7744 16.2496 13.3504 16.1984 13.9264 16.1984C14.208 16.1984 14.4512 16.2112 14.656 16.2368C14.8608 16.2496 15.0464 16.2688 15.2128 16.2944C15.2512 16.2176 15.2768 16.128 15.2896 16.0256C15.3024 15.9104 15.3088 15.8016 15.3088 15.6992C15.3088 15.2896 15.1872 14.9696 14.944 14.7392ZM22.4278 9.3248C22.2742 9.2096 22.095 9.152 21.8902 9.152H19.5478C19.343 9.152 19.1574 9.2096 18.991 9.3248C18.8374 9.44 18.735 9.5936 18.6838 9.7856L14.671 22.4H17.1286L18.2422 18.6176H23.1766L24.3094 22.4H26.767L22.7542 9.7856C22.6902 9.5936 22.5814 9.44 22.4278 9.3248Z" fill="#40916C"/>
</svg>
