<svg width="209" height="30" viewBox="0 0 209 30" fill="none" xmlns="http://www.w3.org/2000/svg">
<path d="M14.72 11.988C15.488 11.988 16.088 12.204 16.52 12.636C16.976 13.068 17.204 13.668 17.204 14.436C17.204 14.628 17.192 14.832 17.168 15.048C17.144 15.24 17.096 15.408 17.024 15.552C16.712 15.504 16.364 15.468 15.98 15.444C15.596 15.396 15.14 15.372 14.612 15.372C13.532 15.372 12.452 15.468 11.372 15.66C10.292 15.852 9.26 16.008 8.276 16.128C7.196 18.672 6.308 21.06 5.612 23.292C4.916 25.524 4.376 27.732 3.992 29.916C3.176 29.724 2.456 29.376 1.832 28.872C1.208 28.368 0.62 27.66 0.0680002 26.748C0.236 26.364 0.44 25.908 0.68 25.38C0.92 24.828 1.208 24.144 1.544 23.328C1.88 22.488 2.276 21.48 2.732 20.304C3.212 19.104 3.776 17.676 4.424 16.02C3.416 15.684 2.756 15.096 2.444 14.256C2.564 14.136 2.9 14.004 3.452 13.86C4.004 13.692 4.676 13.512 5.468 13.32C5.828 12.384 6.14 11.556 6.404 10.836C6.668 10.092 6.908 9.396 7.124 8.748C7.34 8.076 7.532 7.428 7.7 6.804C7.892 6.156 8.06 5.472 8.204 4.752H8.024C7.112 4.752 6.368 4.536 5.792 4.104C5.24 3.672 4.964 3.108 4.964 2.412C4.964 2.22 4.988 1.992 5.036 1.728C5.108 1.464 5.192 1.236 5.288 1.044C5.744 1.116 6.188 1.164 6.62 1.188C7.076 1.212 7.664 1.224 8.384 1.224C9.896 1.224 11.312 1.188 12.632 1.116C13.952 1.02 15.14 0.923998 16.196 0.827998C17.276 0.731999 18.2 0.648 18.968 0.575999C19.736 0.479999 20.324 0.431999 20.732 0.431999C21.284 0.431999 21.776 0.719999 22.208 1.296C22.64 1.872 22.976 2.688 23.216 3.744C22.448 3.672 21.824 3.624 21.344 3.6C20.888 3.576 20.48 3.564 20.12 3.564C18.896 3.564 17.768 3.624 16.736 3.744C15.728 3.84 14.768 3.96 13.856 4.104C13.712 4.32 13.544 4.596 13.352 4.932C13.184 5.268 12.956 5.748 12.668 6.372C12.38 6.972 12.008 7.764 11.552 8.748C11.12 9.732 10.568 10.98 9.896 12.492C10.832 12.348 11.72 12.228 12.56 12.132C13.424 12.036 14.144 11.988 14.72 11.988ZM21.0841 29.736C19.9321 29.4 19.1281 29.064 18.6721 28.728C18.2401 28.392 18.0241 27.972 18.0241 27.468C18.0241 27.084 18.1321 26.544 18.3481 25.848C18.5641 25.152 18.8761 24.336 19.2841 23.4C19.7161 22.44 20.2201 21.384 20.7961 20.232C21.3961 19.08 22.0681 17.844 22.8121 16.524C22.1881 16.5 21.6241 16.488 21.1201 16.488C20.6401 16.464 20.2441 16.452 19.9321 16.452C20.0761 16.092 20.4841 15.78 21.1561 15.516C21.8281 15.252 22.7161 15.024 23.8201 14.832C24.7561 13.272 25.7521 11.784 26.8081 10.368C27.8881 8.952 28.9681 7.656 30.0481 6.48C31.1281 5.28 32.2081 4.236 33.2881 3.348C34.3681 2.436 35.4001 1.716 36.3841 1.188C36.4081 1.02 36.4201 0.875999 36.4201 0.755999C36.4441 0.635999 36.4561 0.551999 36.4561 0.503998C36.7921 0.503998 37.2361 0.587998 37.7881 0.755999C38.3641 0.923998 38.9161 1.128 39.4441 1.368C39.9961 1.608 40.4761 1.86 40.8841 2.124C41.3161 2.364 41.5561 2.568 41.6041 2.736C40.8121 4.128 40.0321 6.216 39.2641 9C38.4961 11.76 37.8601 15.072 37.3561 18.936C37.2361 19.896 37.1281 20.988 37.0321 22.212C36.9601 23.436 36.9241 24.804 36.9241 26.316C36.9241 26.844 36.9241 27.384 36.9241 27.936C36.9241 28.488 36.9481 29.064 36.9961 29.664C36.9481 29.688 36.9001 29.7 36.8521 29.7C36.8041 29.7 36.7081 29.7 36.5641 29.7C36.2281 29.7 35.8321 29.64 35.3761 29.52C34.9441 29.424 34.5121 29.292 34.0801 29.124C33.6721 28.98 33.3121 28.812 33.0001 28.62C32.7121 28.428 32.5321 28.26 32.4601 28.116C32.4361 27.804 32.4241 27.492 32.4241 27.18C32.4241 26.892 32.4241 26.58 32.4241 26.244C32.4241 24.756 32.4721 23.244 32.5681 21.708C32.6881 20.172 32.8801 18.588 33.1441 16.956C32.8081 16.932 32.3641 16.908 31.8121 16.884C31.2601 16.836 30.6361 16.8 29.9401 16.776C29.2681 16.752 28.5361 16.728 27.7441 16.704C26.9761 16.656 26.2201 16.62 25.4761 16.596C24.9001 17.676 24.3601 18.756 23.8561 19.836C23.3521 20.892 22.9201 21.96 22.5601 23.04C22.1521 24.192 21.8161 25.344 21.5521 26.496C21.3121 27.648 21.1561 28.728 21.0841 29.736ZM34.9801 8.1C35.0761 7.764 35.1841 7.308 35.3041 6.732C35.4481 6.132 35.5801 5.508 35.7001 4.86C35.1001 5.076 34.4281 5.472 33.6841 6.048C32.9641 6.624 32.2081 7.344 31.4161 8.208C30.6481 9.048 29.8561 10.008 29.0401 11.088C28.2481 12.144 27.4801 13.272 26.7361 14.472C28.7521 14.304 31.0441 14.196 33.6121 14.148C33.8041 13.14 34.0081 12.144 34.2241 11.16C34.4641 10.152 34.7161 9.132 34.9801 8.1ZM45.7658 29.736C44.3978 29.328 43.4738 28.932 42.9938 28.548C42.5138 28.188 42.2738 27.684 42.2738 27.036C42.2738 26.316 42.4418 25.308 42.7778 24.012C43.1138 22.692 43.5458 21.228 44.0738 19.62C44.6258 18.012 45.2498 16.332 45.9458 14.58C46.6418 12.828 47.3498 11.148 48.0698 9.54C48.7898 7.932 49.4858 6.468 50.1578 5.148C50.8538 3.804 51.4658 2.76 51.9938 2.016L51.7418 0.503998C52.0778 0.503998 52.5458 0.587998 53.1458 0.755999C53.7458 0.923998 54.3458 1.128 54.9458 1.368C55.5698 1.608 56.1098 1.86 56.5658 2.124C57.0458 2.364 57.3098 2.568 57.3578 2.736C57.2378 3.312 57.1418 4.188 57.0698 5.364C56.9978 6.516 56.9618 7.752 56.9618 9.072C56.9618 11.688 57.0578 14.256 57.2498 16.776C57.4658 19.272 57.9458 21.816 58.6898 24.408C59.0738 22.488 59.4818 20.58 59.9138 18.684C60.3698 16.764 60.8378 14.94 61.3178 13.212C61.7978 11.46 62.2778 9.84 62.7578 8.352C63.2378 6.864 63.6938 5.568 64.1258 4.464C64.5818 3.336 65.0018 2.46 65.3858 1.836C65.7698 1.188 66.1178 0.839999 66.4298 0.791998C66.6938 0.839999 66.9818 0.947999 67.2938 1.116C67.6058 1.26 67.9058 1.44 68.1938 1.656C68.4818 1.872 68.7458 2.112 68.9858 2.376C69.2258 2.64 69.4178 2.904 69.5618 3.168C68.7938 3.48 68.0258 4.212 67.2578 5.364C66.5138 6.516 65.7938 7.92 65.0978 9.576C64.4258 11.208 63.7898 12.984 63.1898 14.904C62.6138 16.824 62.0978 18.72 61.6418 20.592C61.2098 22.44 60.8618 24.156 60.5978 25.74C60.3578 27.324 60.2258 28.596 60.2018 29.556C60.2018 29.604 60.2138 29.64 60.2378 29.664C60.1658 29.688 60.0818 29.7 59.9858 29.7C59.9138 29.7 59.8418 29.7 59.7698 29.7C58.6658 29.7 57.6818 29.556 56.8178 29.268C55.9778 29.004 55.4258 28.62 55.1618 28.116C54.6578 26.1 54.2378 24.156 53.9018 22.284C53.5658 20.412 53.2778 18.54 53.0378 16.668C52.8218 14.796 52.6418 12.912 52.4978 11.016C52.3778 9.096 52.2818 7.092 52.2098 5.004C51.7538 5.724 51.2738 6.672 50.7698 7.848C50.2658 9 49.7738 10.272 49.2938 11.664C48.8138 13.056 48.3458 14.52 47.8898 16.056C47.4578 17.592 47.0738 19.092 46.7378 20.556C46.4018 22.02 46.1378 23.412 45.9458 24.732C45.7538 26.028 45.6578 27.156 45.6578 28.116C45.6578 28.62 45.6578 28.98 45.6578 29.196C45.6818 29.412 45.7178 29.592 45.7658 29.736Z" fill="#C9FFCB"/>
<path d="M86.1457 2.16C86.5297 2.16 86.8657 2.268 87.1537 2.484C87.4417 2.7 87.6457 2.988 87.7657 3.348L95.2897 27H90.6817L88.5577 19.908H79.3057L77.2177 27H72.6097L80.1337 3.348C80.2297 2.988 80.4217 2.7 80.7097 2.484C81.0217 2.268 81.3697 2.16 81.7537 2.16H86.1457ZM82.8697 7.848L80.3497 16.38H87.5137L84.9937 7.848C84.8977 7.488 84.8017 7.116 84.7057 6.732C84.6097 6.324 84.5257 5.94 84.4537 5.58H83.4457C83.3737 5.94 83.2897 6.324 83.1937 6.732C83.0977 7.116 82.9897 7.488 82.8697 7.848ZM105.861 1.692C107.061 1.716 108.345 1.788 109.713 1.908C111.081 2.004 112.413 2.232 113.709 2.592L113.421 5.652C112.365 5.628 111.165 5.604 109.821 5.58C108.477 5.532 107.181 5.508 105.933 5.508C104.901 5.508 104.073 5.568 103.449 5.688C102.825 5.784 102.369 6.036 102.081 6.444C101.817 6.852 101.685 7.524 101.685 8.46C101.685 9.54 101.901 10.308 102.333 10.764C102.789 11.196 103.521 11.556 104.529 11.844L109.425 13.284C111.393 13.884 112.749 14.76 113.493 15.912C114.237 17.04 114.609 18.552 114.609 20.448C114.609 22.344 114.309 23.796 113.709 24.804C113.109 25.812 112.161 26.508 110.865 26.892C109.569 27.276 107.865 27.468 105.753 27.468C104.937 27.468 103.809 27.42 102.369 27.324C100.953 27.228 99.333 26.988 97.509 26.604L97.797 23.364C99.189 23.412 100.365 23.448 101.325 23.472C102.309 23.496 103.149 23.52 103.845 23.544C104.541 23.544 105.189 23.544 105.789 23.544C106.893 23.544 107.745 23.472 108.345 23.328C108.969 23.184 109.413 22.896 109.677 22.464C109.941 22.008 110.073 21.336 110.073 20.448C110.073 19.32 109.857 18.552 109.425 18.144C108.993 17.712 108.297 17.364 107.337 17.1L102.261 15.552C100.389 14.976 99.069 14.124 98.301 12.996C97.557 11.844 97.185 10.332 97.185 8.46C97.185 6.564 97.485 5.136 98.085 4.176C98.685 3.192 99.621 2.532 100.893 2.196C102.165 1.86 103.821 1.692 105.861 1.692ZM126.568 1.692C127.768 1.716 129.052 1.788 130.42 1.908C131.788 2.004 133.12 2.232 134.416 2.592L134.128 5.652C133.072 5.628 131.872 5.604 130.528 5.58C129.184 5.532 127.888 5.508 126.64 5.508C125.608 5.508 124.78 5.568 124.156 5.688C123.532 5.784 123.076 6.036 122.788 6.444C122.524 6.852 122.392 7.524 122.392 8.46C122.392 9.54 122.608 10.308 123.04 10.764C123.496 11.196 124.228 11.556 125.236 11.844L130.132 13.284C132.1 13.884 133.456 14.76 134.2 15.912C134.944 17.04 135.316 18.552 135.316 20.448C135.316 22.344 135.016 23.796 134.416 24.804C133.816 25.812 132.868 26.508 131.572 26.892C130.276 27.276 128.572 27.468 126.46 27.468C125.644 27.468 124.516 27.42 123.076 27.324C121.66 27.228 120.04 26.988 118.216 26.604L118.504 23.364C119.896 23.412 121.072 23.448 122.032 23.472C123.016 23.496 123.856 23.52 124.552 23.544C125.248 23.544 125.896 23.544 126.496 23.544C127.6 23.544 128.452 23.472 129.052 23.328C129.676 23.184 130.12 22.896 130.384 22.464C130.648 22.008 130.78 21.336 130.78 20.448C130.78 19.32 130.564 18.552 130.132 18.144C129.7 17.712 129.004 17.364 128.044 17.1L122.968 15.552C121.096 14.976 119.776 14.124 119.008 12.996C118.264 11.844 117.892 10.332 117.892 8.46C117.892 6.564 118.192 5.136 118.792 4.176C119.392 3.192 120.328 2.532 121.6 2.196C122.872 1.86 124.528 1.692 126.568 1.692ZM144.143 2.16V27H139.643V2.16H144.143ZM157.33 1.692C158.53 1.716 159.814 1.788 161.182 1.908C162.55 2.004 163.882 2.232 165.178 2.592L164.89 5.652C163.834 5.628 162.634 5.604 161.29 5.58C159.946 5.532 158.65 5.508 157.402 5.508C156.37 5.508 155.542 5.568 154.918 5.688C154.294 5.784 153.838 6.036 153.55 6.444C153.286 6.852 153.154 7.524 153.154 8.46C153.154 9.54 153.37 10.308 153.802 10.764C154.258 11.196 154.99 11.556 155.998 11.844L160.894 13.284C162.862 13.884 164.218 14.76 164.962 15.912C165.706 17.04 166.078 18.552 166.078 20.448C166.078 22.344 165.778 23.796 165.178 24.804C164.578 25.812 163.63 26.508 162.334 26.892C161.038 27.276 159.334 27.468 157.222 27.468C156.406 27.468 155.278 27.42 153.838 27.324C152.422 27.228 150.802 26.988 148.978 26.604L149.266 23.364C150.658 23.412 151.834 23.448 152.794 23.472C153.778 23.496 154.618 23.52 155.314 23.544C156.01 23.544 156.658 23.544 157.258 23.544C158.362 23.544 159.214 23.472 159.814 23.328C160.438 23.184 160.882 22.896 161.146 22.464C161.41 22.008 161.542 21.336 161.542 20.448C161.542 19.32 161.326 18.552 160.894 18.144C160.462 17.712 159.766 17.364 158.806 17.1L153.73 15.552C151.858 14.976 150.538 14.124 149.77 12.996C149.026 11.844 148.654 10.332 148.654 8.46C148.654 6.564 148.954 5.136 149.554 4.176C150.154 3.192 151.09 2.532 152.362 2.196C153.634 1.86 155.29 1.692 157.33 1.692ZM188.261 2.16V5.832L180.557 5.832V27H176.057V5.832H168.353V2.16L188.261 2.16ZM199.377 1.692C200.577 1.716 201.861 1.788 203.229 1.908C204.597 2.004 205.929 2.232 207.225 2.592L206.937 5.652C205.881 5.628 204.681 5.604 203.337 5.58C201.993 5.532 200.697 5.508 199.449 5.508C198.417 5.508 197.589 5.568 196.965 5.688C196.341 5.784 195.885 6.036 195.597 6.444C195.333 6.852 195.201 7.524 195.201 8.46C195.201 9.54 195.417 10.308 195.849 10.764C196.305 11.196 197.037 11.556 198.045 11.844L202.941 13.284C204.909 13.884 206.265 14.76 207.009 15.912C207.753 17.04 208.125 18.552 208.125 20.448C208.125 22.344 207.825 23.796 207.225 24.804C206.625 25.812 205.677 26.508 204.381 26.892C203.085 27.276 201.381 27.468 199.269 27.468C198.453 27.468 197.325 27.42 195.885 27.324C194.469 27.228 192.849 26.988 191.025 26.604L191.313 23.364C192.705 23.412 193.881 23.448 194.841 23.472C195.825 23.496 196.665 23.52 197.361 23.544C198.057 23.544 198.705 23.544 199.305 23.544C200.409 23.544 201.261 23.472 201.861 23.328C202.485 23.184 202.929 22.896 203.193 22.464C203.457 22.008 203.589 21.336 203.589 20.448C203.589 19.32 203.373 18.552 202.941 18.144C202.509 17.712 201.813 17.364 200.853 17.1L195.777 15.552C193.905 14.976 192.585 14.124 191.817 12.996C191.073 11.844 190.701 10.332 190.701 8.46C190.701 6.564 191.001 5.136 191.601 4.176C192.201 3.192 193.137 2.532 194.409 2.196C195.681 1.86 197.337 1.692 199.377 1.692Z" fill="white"/>
</svg>
